<svg width="30" height="30" viewBox="0 0 30 30" fill="none" xmlns="http://www.w3.org/2000/svg">
<path d="M29.486 9.21549L27.0037 6.73477L28.8697 4.87063C29.0347 4.70592 29.1274 4.48274 29.1274 4.24931C29.1274 4.01587 29.0347 3.79269 28.8698 3.62793L26.3714 1.13116C26.0417 0.801569 25.4577 0.801569 25.1279 1.13116L23.2626 2.996L20.78 0.514814C20.0931 -0.171605 18.9795 -0.171605 18.2926 0.514814C17.6056 1.20123 17.6056 2.31421 18.2926 3.00069L26.9985 11.7014C27.6854 12.3878 28.7991 12.3878 29.486 11.7014C30.1728 11.0149 30.1728 9.90197 29.486 9.21549Z" fill="white"/>
<path d="M11.7085 26.9987L3.0026 18.298C2.31564 17.6116 1.20209 17.6116 0.515132 18.298C-0.171711 18.9846 -0.171711 20.0975 0.515132 20.7839L2.99779 23.2651L1.13543 25.1255C0.970506 25.2903 0.877754 25.5135 0.877754 25.7469C0.877754 25.9803 0.970506 26.2035 1.13543 26.3683L3.63374 28.8642C3.80547 29.036 4.03049 29.1218 4.25551 29.1218C4.48053 29.1218 4.70554 29.036 4.87727 28.8643L6.73887 27.0038L9.22112 29.4846C9.90796 30.171 11.0216 30.171 11.7085 29.4846C12.3955 28.7981 12.3955 27.6851 11.7085 26.9987Z" fill="white"/>
<path d="M15.804 10.459L10.4648 15.813L14.196 19.5419L19.5352 14.1877L15.804 10.459Z" fill="white"/>
<path d="M26.9973 14.1877L15.8039 3.00114C15.1171 2.31472 14.0033 2.31472 13.3165 3.00114C12.6295 3.68768 12.6295 4.80054 13.3165 5.48707L24.5099 16.6736C25.1968 17.36 26.3104 17.36 26.9973 16.6736C27.6843 15.9872 27.6843 14.8742 26.9973 14.1877Z" fill="white"/>
<path d="M16.6834 24.5139L5.48987 13.3273C4.80303 12.6409 3.68937 12.6409 3.00252 13.3273C2.31556 14.0139 2.31556 15.1268 3.00252 15.8132L14.196 26.9998C14.8828 27.6862 15.9965 27.6862 16.6834 26.9998C17.3703 26.3134 17.3703 25.2004 16.6834 24.5139Z" fill="white"/>
</svg>
