<svg width="30" height="30" viewBox="0 0 30 30" fill="none" xmlns="http://www.w3.org/2000/svg">
<path d="M8.6966 13.6344C8.91375 13.2001 8.73779 12.6723 8.3035 12.4551L1.27233 8.93955C0.838915 8.72498 0.310171 8.89836 0.0930249 9.33265C-0.124121 9.76694 0.0518339 10.2948 0.486126 10.512L3.37365 11.9557C1.81467 18.2692 0.000330606 25.9732 0.000330606 27.3623C0.000330606 28.8162 1.18309 29.999 2.63702 29.999H5.25537C5.26556 29.999 5.27371 29.9907 5.27371 29.9806V12.9057L7.5173 14.0275C7.95557 14.2451 8.48027 14.0657 8.6966 13.6344Z" fill="white"/>
<path d="M28.2424 26.4844H7.03174V30H28.2424C29.2133 30 30.0002 29.2129 30.0002 28.2422C30.0002 27.2713 29.2133 26.4844 28.2424 26.4844Z" fill="white"/>
<path d="M15.8789 24.7257H19.3945C19.4066 23.3247 19.7136 21.7088 20.246 20.1062C19.1181 19.0865 18.3538 17.8554 17.9588 16.375C16.7814 18.9261 15.9081 21.8752 15.8789 24.7257Z" fill="white"/>
<path d="M10.6939 12.3626L13.3221 12.3634C16.0798 12.3634 18.4659 10.359 19.5516 7.12234C19.9073 6.09743 19.2085 4.99969 18.1487 4.83663C18.8623 4.36431 19.3343 3.55478 19.3343 2.63669C19.3343 1.18276 18.1515 0 16.6976 0C15.2436 0 14.0609 1.18276 14.0609 2.63669C14.0609 4.09062 15.2436 5.27338 16.6976 5.27338C16.7277 5.27338 16.7576 5.27209 16.7875 5.27109C16.7816 5.27689 16.3705 5.41353 16.194 6.08811C15.6463 7.7944 14.5812 8.80033 13.2406 8.84756H13.182C11.6234 8.84756 10.2988 9.86637 9.83924 11.2732C9.662 11.8155 10.1232 12.3625 10.6939 12.3626Z" fill="white"/>
<path d="M19.3951 14.1201C19.5032 16.6658 20.5108 18.4271 22.5828 19.6733C23.9938 20.4767 25.4237 20.9118 27.221 21.0843C27.7521 21.1326 28.184 20.717 28.184 20.2097V18.4494C28.184 18.0031 27.8502 17.628 27.4072 17.5765C26.2151 17.4375 25.1156 17.1036 24.3912 16.659C23.3878 16.0445 22.9449 15.2806 22.9106 14.1202C22.8871 11.8361 22.316 9.60431 21.2639 7.54102C21.2494 7.59029 21.2345 7.63957 21.2177 7.68844C20.7238 9.15766 19.9821 10.4471 19.0474 11.4785C19.2621 12.3108 19.3813 13.1918 19.3951 14.1201Z" fill="white"/>
</svg>
