<svg width="18" height="24" viewBox="0 0 18 24" fill="none" xmlns="http://www.w3.org/2000/svg">
<path d="M16.2932 0.00548501C12.4456 0.344583 9.60634 2.2651 7.9512 5.04151C6.84196 6.43204 4.62618 10.6774 3.82034 12.8997C2.3592 15.6633 1.08506 18.9515 0.0879429 21.9157C-0.521579 23.7283 2.21526 24.9109 2.82827 23.0901C3.57397 20.8724 4.47487 18.4747 5.49294 16.2496C6.50325 18.5107 7.52985 20.7645 8.63211 22.9826C9.48645 24.7045 12.0572 23.1945 11.206 21.4784C10.0711 19.1951 9.01699 16.8754 7.97836 14.5479C7.99155 14.5029 8.00824 14.459 8.0222 14.4144C8.19524 14.4637 8.38613 14.4788 8.59642 14.4389C10.1856 14.1405 11.7748 13.8429 13.3651 13.5446C14.0445 13.4169 14.3048 12.6735 14.1977 12.0784C13.8765 10.2948 12.8604 9.05403 11.5955 7.88C11.4077 7.24138 10.7815 6.67647 10.0867 6.11506C11.4954 3.8376 13.7954 2.60148 16.7891 2.33765C18.317 2.2038 17.8079 -0.127593 16.2932 0.00548501ZM10.503 10.1431C10.896 10.552 11.2304 10.9823 11.483 11.4805C10.714 11.6248 9.94466 11.7688 9.17568 11.9131C9.56366 11.2884 10.0102 10.6987 10.503 10.1431Z" fill="white"/>
<path d="M13.7932 8.11276C14.9235 8.11276 15.8398 7.19646 15.8398 6.06614C15.8398 4.93583 14.9235 4.01953 13.7932 4.01953C12.6629 4.01953 11.7466 4.93583 11.7466 6.06614C11.7466 7.19646 12.6629 8.11276 13.7932 8.11276Z" fill="white"/>
</svg>
