<svg width="24" height="12" viewBox="0 0 24 12" fill="none" xmlns="http://www.w3.org/2000/svg">
<path d="M7.67969 3.8125H16.3184V8.07021H7.67969V3.8125Z" fill="white"/>
<path d="M22.7438 2.65625H22.1445V8.93494H22.7438C23.4365 8.93409 23.9979 8.37287 23.9986 7.68002V3.91075C23.9977 3.21811 23.4363 2.65689 22.7438 2.65625Z" fill="white"/>
<path d="M19.7942 0H17.4141V11.8836H19.7942C20.4868 11.8827 21.0483 11.3215 21.0489 10.6289V1.25471C21.0483 0.562073 20.4868 0.000856166 19.7942 0Z" fill="white"/>
<path d="M2.94971 1.25471V10.6289C2.95035 11.3215 3.51178 11.8829 4.20442 11.8836H6.58456V0H4.20442C3.51178 0.000856166 2.95035 0.562073 2.94971 1.25471Z" fill="white"/>
<path d="M0 3.90901V7.67806C0.000642127 8.37092 0.562073 8.93213 1.25471 8.93299H1.85403V2.6543H1.25471C0.562073 2.65494 0.000856166 3.21637 0 3.90901Z" fill="white"/>
</svg>
